<?xml version="1.0" standalone="no"?><!DOCTYPE svg PUBLIC "-//W3C//DTD SVG 1.1//EN" "http://www.w3.org/Graphics/SVG/1.1/DTD/svg11.dtd"><svg t="1500371229493" class="icon" style="" viewBox="0 0 1024 1024" version="1.1" xmlns="http://www.w3.org/2000/svg" p-id="6930" xmlns:xlink="http://www.w3.org/1999/xlink" width="128" height="128"><defs><style type="text/css"></style></defs>
<path d="M948.032 383.304L843.36 188.696H597.456V83.488C597.456 37.456 560 0 513.968 0 467.92 0 430.472 37.456 430.472 83.488v105.216H180.64L75.968 383.304H0v30.416c0 109.624 89.184 198.808 198.808 198.808s198.808-89.184 198.808-198.8v-30.424h-75.968l-71.944-133.76H430.48v509.2h-83.2c-57.184 0-103.904 45.512-105.904 102.208h-60.024V1024h665.224v-163.04H786.56c-2-56.696-48.72-102.216-105.904-102.216h-83.2v-509.2h176.84l-71.936 133.76h-75.968v30.424c0 109.624 89.184 198.808 198.8 198.808 109.624 0 198.816-89.184 198.816-198.808v-30.416h-75.976z m-614.632 60.832c-13.888 61.496-68.96 107.552-134.592 107.552-65.632 0-120.704-46.056-134.592-107.552h269.184z m-80.832-60.84h-107.52l53.76-99.96 53.76 99.96z m238.744-299.808a22.68 22.68 0 0 1 22.656-22.656 22.68 22.68 0 0 1 22.656 22.656v105.216h-45.312V83.488z m0 166.048h45.312v509.2h-45.312v-509.2z m294.432 672.256v41.376H242.184v-41.376h543.56z m-105.088-102.216a45.224 45.224 0 0 1 45.008 41.376H302.264a45.224 45.224 0 0 1 45.008-41.376h333.384z m144.536-536.24l53.76 99.96H771.44l53.76-99.96z m0 268.352c-65.632 0-120.704-46.056-134.592-107.552h269.184c-13.888 61.496-68.96 107.552-134.592 107.552z" fill="#2c2c2c" p-id="6931"></path>
</svg>