<?xml version="1.0" standalone="no"?><!DOCTYPE svg PUBLIC "-//W3C//DTD SVG 1.1//EN" "http://www.w3.org/Graphics/SVG/1.1/DTD/svg11.dtd"><svg t="1500008320307" class="icon" style="" viewBox="0 0 1025 1024" version="1.1" xmlns="http://www.w3.org/2000/svg" p-id="20988" xmlns:xlink="http://www.w3.org/1999/xlink" width="128.125" height="128"><defs><style type="text/css"></style></defs>
<path d="M1023.781589 371.968c0-44.16-36.224-80.064-80.96-80.064l-62.912 0c26.304-25.344 42.688-60.736 42.688-100.032 0-77.312-63.424-140.032-141.632-140.032-79.616 0-131.52 78.144-162.816 151.872-16.768-7.296-37.312-11.84-59.776-11.84-22.4 0-42.944 4.48-59.776 11.84-31.296-73.728-83.2-151.872-162.816-151.872-66.304 0-121.536 45.248-136.96 106.048 12.864 2.624 25.92 6.08 39.168 10.304 10.688-43.904 50.496-76.736 98.112-76.736 58.24 0 101.632 68.8 129.28 136.832-4.416 6.144-6.72 12.736-7.488 19.712 2.176-0.384 4.224-0.768 6.016-1.344-2.624 0.832-4.352 1.92-6.336 3.072-0.064 0.768-0.384 1.408-0.384 2.24 0 12.864 7.36 24.576 19.136 34.304-0.192 0.064-0.256 0.192-0.448 0.256-26.304 8.192-77.312 7.04-170.752-44.032-207.872-113.728-299.584-4.416-300.608-3.264-7.04 8.576-5.696 21.184 2.944 28.096s21.376 5.696 28.48-2.944c0.768-0.96 70.976-84.608 249.536 13.056 64.256 35.2 118.848 52.8 162.88 52.8 8.896 0 17.28-1.024 25.28-2.368 0.64 1.344 1.536 2.752 2.176 4.032l62.336 0 0 160.064-404.736 0 0-120.064c0-22.144 18.112-40 40.512-40l134.336 0c-13.696-6.336-27.712-13.184-42.176-21.12-13.504-7.36-26.624-13.568-39.424-18.944l-52.736 0c-44.736 0-80.96 35.904-80.96 80.064l0 160.064 60.736 0 0 360.128c0 44.224 36.224 80.064 80.96 80.064l303.552 0 40.448 0 303.552 0c44.736 0 80.96-35.84 80.96-80.064l0-359.936 60.928 0L1023.781589 371.968zM538.213589 932.16l-303.552 0c-22.336 0-40.448-17.856-40.448-40l0-360.128 344 0L538.213589 932.16zM659.557589 251.968c0-8.448-2.944-16.448-8.192-23.68 27.648-68.032 70.976-136.832 129.28-136.832 55.808 0 101.184 44.864 101.184 100.032 0 55.104-45.376 100.032-101.184 100.032l-146.752 0C649.701589 280.96 659.557589 267.136 659.557589 251.968zM558.373589 271.936c-8.128 0-15.936-0.576-23.104-1.536-1.92-3.456-4.544-6.528-8.384-8.384-6.336-3.136-13.312-2.24-19.008 1.024-6.4-3.2-10.176-6.976-10.176-11.072 0-11.072 27.2-20.032 60.672-20.032 33.536 0 60.736 9.024 60.736 20.032C619.109589 262.976 591.909589 271.936 558.373589 271.936zM922.597589 892.16c0 22.144-18.112 40-40.448 40l-303.552 0 0-400.128 344 0L922.597589 892.16zM983.397589 492.032l-404.736 0 0-160.064 202.368 0 161.856 0c22.4 0 40.512 17.856 40.512 40L983.397589 492.032z" p-id="20989"></path>
</svg>