<?xml version="1.0" standalone="no"?><!DOCTYPE svg PUBLIC "-//W3C//DTD SVG 1.1//EN" "http://www.w3.org/Graphics/SVG/1.1/DTD/svg11.dtd">
<svg t="1500007884561" class="icon" style="" viewBox="0 0 1024 1024" version="1.1" xmlns="http://www.w3.org/2000/svg" p-id="14975" xmlns:xlink="http://www.w3.org/1999/xlink" width="128" height="128"><defs><style type="text/css"></style></defs>
<path d="M369.495547 179.675447c19.484071 0 35.280003-15.652645 35.280003-34.972238L404.775551 128.591439l211.663874 0 0 16.115806c0 19.315557 15.790887 34.968202 35.280003 34.968202 19.484071 0 35.27294-15.652645 35.27294-34.968202L686.992368 51.451308c0-19.317575-15.788869-34.97022-35.27294-34.97022-19.489117 0-35.280003 15.652645-35.280003 34.97022l0 7.195655L404.775551 58.646964l0-7.195655c0-19.317575-15.794923-34.97022-35.280003-34.97022-19.491135 0-35.276976 15.652645-35.276976 34.97022l0 93.251901C334.218571 164.022803 350.004413 179.675447 369.495547 179.675447zM384.700166 292.52948c-19.489117 0-35.280003 15.650626-35.280003 34.97022l0 34.116549c0 19.315557 15.790887 34.976274 35.280003 34.976274 19.484071 0 35.274958-15.661726 35.274958-34.976274l0-34.116549C419.980169 308.180107 404.185247 292.52948 384.700166 292.52948zM636.507746 396.592523c19.491135 0 35.280003-15.661726 35.280003-34.976274l0-34.116549c0-19.319593-15.788869-34.97022-35.280003-34.97022-19.484071 0-35.27294 15.650626-35.27294 34.97022l0 34.116549C601.234806 380.930797 617.023675 396.592523 636.507746 396.592523zM548.854147 460.713674c-0.149342 0.217958-15.37616 22.117736-38.594788 22.117736-22.578879 0-36.625089-20.266098-37.574621-21.687873-10.361098-16.156169-31.915774-21.057206-48.381727-10.940302-16.545669 10.205702-21.636411 31.762396-11.355029 48.167805 12.66278 20.208581 47.398896 54.405856 97.310368 54.405856 49.651133 0 84.826193-33.94299 97.780593-53.995166 10.417606-16.12287 5.685082-37.349599-10.439805-47.880221C581.447006 440.382996 559.66428 444.854171 548.854147 460.713674zM788.794092 58.609628c-19.484071 0-35.274958 15.654663-35.274958 34.97022 0 19.317575 15.790887 34.972238 35.274958 34.972238 47.247536 0 85.681882 39.037768 85.681882 87.004768l0 646.485903c0 47.969018-38.434346 87.000732-85.681882 87.000732L232.40272 948.980927c-47.229373 0-85.667755-39.03575-85.667755-87.009814L146.734965 215.489247c0-47.969018 38.438382-87.004768 85.667755-87.004768 19.491135 0 35.282021-15.652645 35.282021-34.968202 0-19.32363-15.794923-34.976274-35.282021-34.976274-86.135962 0-156.220698 70.414701-156.220698 156.949244l0 646.485903c0 86.539589 70.084736 156.95328 156.220698 156.95328l556.391372 0.062562c86.154125 0 156.233816-70.405619 156.233816-156.949244L945.027908 215.556854C945.027908 129.017265 874.948217 58.609628 788.794092 58.609628zM216.627979 832.475081c0 19.319593 15.788869 34.976274 35.27294 34.976274l517.409103 0c19.484071 0 35.27294-15.656681 35.27294-34.976274 0-19.317575-15.788869-34.97022-35.27294-34.97022L251.904955 797.504862C232.415838 797.504862 216.627979 813.157506 216.627979 832.475081z"></path>
</svg>