<?xml version="1.0" standalone="no"?><!DOCTYPE svg PUBLIC "-//W3C//DTD SVG 1.1//EN" "http://www.w3.org/Graphics/SVG/1.1/DTD/svg11.dtd"><svg t="1500373156212" class="icon" style="" viewBox="0 0 1024 1024" version="1.1" xmlns="http://www.w3.org/2000/svg" p-id="8227" xmlns:xlink="http://www.w3.org/1999/xlink" width="128" height="128"><defs><style type="text/css"></style></defs>
<path d="M210.069413 903.951857c-50.746778 0-94.668103-15.554254-127.013789-44.980447l-0.12689-0.116657c-33.580816-31.244608-50.472532-75.500555-46.343491-121.41835 5.143137-58.172911 43.512003-114.297163 105.266485-153.961534 47.323818-30.052456 102.134145-46.579875 154.401556-46.579875 26.859741 0 52.019771 4.431939 74.970482 13.189394 2.297322-2.15406 4.783956-4.114714 7.484462-5.901407l0.585331-0.369414 42.10905-25.205055-42.696428-25.575492c-2.700505-1.786693-5.187139-3.746324-7.483438-5.900384-22.949688 8.757454-48.110741 13.189394-74.970482 13.189394-52.268434 0-107.078761-16.527418-154.335041-46.537919C80.098269 414.078807 41.729403 357.954555 36.583197 299.760155c-4.146437-46.116317 12.770861-90.201371 46.416146-120.936373 32.160467-29.804816 76.098165-45.558615 127.07007-45.558615 51.927673 0 106.551758 16.527418 153.808038 46.537919 62.09115 38.951127 100.703563 95.112218 105.864096 154.038282 1.309832 14.388708 0.414439 29.1499-2.663666 44.007283l46.49801 27.879977 354.85496-199.015659c7.186679-3.992941 15.624862-6.175653 23.811312-6.175653 8.220219 0 15.747659 1.829671 22.379707 5.438872l67.279313 33.643238c14.316054 7.519254 24.207331 21.836331 26.456558 38.300304l0.070608 0.618077c1.603521 16.781198-5.732561 33.282011-19.158339 43.147706L738.412636 518.609535l250.861468 196.926068c13.423731 9.864672 20.757766 26.365484 19.155269 43.144636l-0.070608 0.618077c-2.25025 16.464997-12.140505 30.783097-26.457582 38.301328l-0.272199 0.13917-67.00609 33.504068c-6.632047 3.609201-14.159488 5.438872-22.379707 5.438872-8.18645 0-16.622586-2.181689-23.756053-6.14393L513.575892 631.490441l-46.49801 27.879977c3.077082 14.859429 3.972475 29.628808 2.659573 44.059472-5.103228 58.274218-43.683918 114.415866-105.8467 153.977907C316.621171 887.425462 261.998109 903.951857 210.069413 903.951857zM103.776551 836.319503c26.594705 24.161283 63.348794 36.934191 106.293885 36.934191 46.173622 0 94.952582-14.827707 137.351228-41.75294 54.028521-34.386158 87.470167-82.064041 91.738377-130.801045 1.341554-14.731516-0.240477-29.984918-4.696975-45.387723l-4.41352-15.254425 15.395642-3.892657c0.468674-0.137123 1.677199-0.725524 2.673899-1.221828l64.943105-38.938847 370.385679 207.726042c2.555196 1.420349 5.780657 2.251274 8.794293 2.251274 3.077082 0 5.699816-0.590448 7.797593-1.755993l0.588401-0.310062 67.115584-33.558303c5.39794-2.8847 9.171893-8.42795 10.152221-14.898315 0.457418-5.91471-2.225691-11.874445-6.889921-15.252379l-0.476861-0.360204-281.8349-221.2388 282.310737-221.597981c4.666276-3.377934 7.349385-9.337669 6.890944-15.254425-0.980327-6.469342-4.754281-12.013615-10.155291-14.898315l-67.410296-33.70566-0.290619-0.161682c-2.097778-1.164522-4.720511-1.75497-7.797593-1.75497-3.012613 0-6.238075 0.831948-8.848529 2.281973L513.062192 441.213817l-64.943105-38.938847c-0.997724-0.496304-2.209318-1.085728-2.702552-1.228991l-9.070586-2.293229L510.214331 442.716031l-30.134321 17.119913c-6.02011 3.680832-9.753131 9.876951-9.753131 16.207124l0 32.970926-82.635045-49.903573 0.696872 1.044796c1.980097 2.970658 4.148483 5.17179 7.003508 7.103792l85.785805 51.349505-85.786829 51.349505c-2.855024 1.932002-5.02341 4.133134-7.002484 7.102768l-7.246031 10.869558-11.888771-5.415336c-21.739117-9.901511-46.299489-14.921851-72.998571-14.921851-46.51336 0-95.479585 14.827707-137.877207 41.75294-53.639664 34.452673-86.909395 82.147952-91.212398 130.815371C63.891146 776.554328 77.235059 811.589262 103.776551 836.319503zM210.069413 163.964352c-43.119053 0-79.857792 12.938684-106.245789 37.416168l-0.090051 0.082888c-26.526143 24.214495-39.85573 59.048861-36.57194 95.570659 4.305049 48.689932 37.57478 96.384188 91.28096 130.878816 42.332131 26.883277 91.297332 41.710984 137.810692 41.710984 26.699082 0 51.259454-5.02034 72.998571-14.922874l11.888771-5.414313 1.484817 2.227738 15.897062-15.895015c1.110287-1.085728 2.125407-1.865487 2.795673-2.381234 0.493234-0.378623 0.594541-0.460488 0.765433-0.630357l0.713244-0.669242c1.768273-1.556449 3.458775-3.436262 5.41636-5.614881 1.595334-1.774413 3.402493-3.78521 5.463432-5.835915l21.922289-21.922289-5.579065-1.410116 4.441149-15.247262c4.455475-15.403828 6.037507-30.656207 4.702092-45.335535-4.318352-49.311079-37.730323-96.969519-91.671862-130.809231C305.020972 178.792059 256.242012 163.964352 210.069413 163.964352zM429.534823 448.518177l14.092973 8.509814c2.071172-4.7727 4.90266-9.242502 8.384971-13.225209l-11.432377-6.803963-5.226025 5.226025c-1.481747 1.473561-2.855024 3.001357-4.308119 4.619204C430.547897 447.39868 430.045453 447.956382 429.534823 448.518177zM210.069413 819.874973c-28.940123 0-53.730739-8.170077-69.805856-23.006993-14.674211-13.468756-21.769816-31.991622-19.946284-52.127218 2.902096-32.050973 27.875884-65.826218 66.807568-90.353844 33.234939-21.234627 73.008804-33.412994 109.128443-33.412994 28.935006 0 53.722552 8.167007 69.796646 22.997784 14.691607 13.495362 21.778003 32.010041 19.955494 52.136428-2.902096 32.047904-27.873838 65.820078-66.796312 90.346681C285.97008 807.693536 246.192122 819.874973 210.069413 819.874973zM296.253284 651.672086c-30.43415 0-64.200184 10.42749-92.63991 28.608571l-0.089028 0.057305c-30.449499 19.173688-50.617841 44.912909-52.633754 67.171865-0.968048 10.686387 2.450818 19.693528 10.161431 26.770713 10.267854 9.476839 28.122501 14.896268 49.016367 14.896268 29.984918 0 64.61667-10.695596 92.638887-28.609595l0.089028-0.057305c30.449499-19.173688 50.617841-44.911886 52.633754-67.171865 0.968048-10.686387-2.451842-19.693528-10.161431-26.770713l-0.031722-0.028653C335.001797 657.090493 317.14715 651.672086 296.253284 651.672086zM555.884486 567.594179c-27.01119 0-48.985668-21.974477-48.985668-48.985668 0-27.01119 21.975501-48.985668 48.985668-48.985668s48.985668 21.975501 48.985668 48.985668C604.870154 545.619702 582.894653 567.594179 555.884486 567.594179zM555.884486 500.323053c-9.912767 0-18.286482 8.374738-18.286482 18.286482s8.374738 18.286482 18.286482 18.286482 18.286482-8.373715 18.286482-18.286482S565.79623 500.323053 555.884486 500.323053zM296.253284 416.245146c-36.120662 0-75.897597-12.180414-109.134583-33.418111-38.927591-24.526603-63.899332-58.299801-66.801429-90.349751-1.823532-20.136619 5.27105-38.659485 19.976984-52.156894 16.043395-14.807241 40.834011-22.978341 69.775156-22.978341 36.120662 0 75.897597 12.180414 109.134583 33.417087 38.927591 24.527626 63.899332 58.300824 66.801429 90.349751 1.823532 20.135596-5.27105 38.658462-19.976984 52.156894C349.985046 408.075069 325.19443 416.245146 296.253284 416.245146zM210.069413 248.042259c-20.893866 0-38.748513 5.418406-48.985668 14.866592-7.741311 7.105838-11.160177 16.112979-10.19213 26.799366 2.015913 22.258956 22.183232 47.998177 52.633754 67.171865l0.089028 0.056282c28.440749 18.182105 62.206784 28.609595 92.63991 28.609595 20.893866 0 38.747489-5.418406 48.984644-14.866592 7.741311-7.105838 11.161201-16.112979 10.193153-26.799366-2.015913-22.257933-22.184255-47.997154-52.633754-67.171865l-0.089028-0.056282C274.687106 258.736832 240.055354 248.042259 210.069413 248.042259z" p-id="8228"></path>
</svg>