<?xml version="1.0" standalone="no"?><!DOCTYPE svg PUBLIC "-//W3C//DTD SVG 1.1//EN" "http://www.w3.org/Graphics/SVG/1.1/DTD/svg11.dtd"><svg t="1500370270404" class="icon" style="" viewBox="0 0 1024 1024" version="1.1" xmlns="http://www.w3.org/2000/svg" p-id="20540" xmlns:xlink="http://www.w3.org/1999/xlink" width="128" height="128"><defs><style type="text/css"></style></defs>
<path d="M965.840392 714.318892L727.72318 527.396665l238.113119-186.918133c14.562671-10.742668 22.518876-28.656667 20.780279-46.868448l-0.095168-0.825808c-2.428306-17.771759-13.129019-33.240055-28.625967-41.378409l-65.38722-32.697703c-7.245008-3.924379-15.420201-5.912663-24.310685-5.912663-8.882298 0-18.037818 2.367931-25.851784 6.709818L500.366032 411.30053l-39.080064-23.431665c2.485611-13.659091 3.133364-27.225061 1.926886-40.483017-5.16565-58.985416-43.598984-115.073852-105.452727-153.895019-46.786583-29.703509-100.901061-46.059012-152.38462-46.059012-50.944276 0-94.937233 15.816221-127.229706 45.737694-16.582677 15.154141-29.611411 34.299177-37.680181 55.368029-8.04421 21.005406-11.219529 44.083008-9.186219 66.708307 5.152347 58.266032 43.355437 114.323768 104.81316 153.796782l0.088005 0.056282c46.794769 29.716812 101.107769 46.082548 152.934134 46.082548 25.554002 0 49.589418-4.031826 71.660087-12.004405a61.247946 61.247946 0 0 0 5.393847 4.003174l33.736358 20.21746-32.955576 19.727297-0.780782 0.490164a61.399395 61.399395 0 0 0-5.393847 4.003174c-22.070668-7.972579-46.107107-12.005428-71.660087-12.005429-51.826366 0-106.138342 16.365736-152.934134 46.082548l-0.088005 0.057306c-61.457724 39.473013-99.660814 95.529727-104.810091 153.768129-4.16588 46.337351 12.883425 91.001597 46.777373 122.537847l0.168846 0.154519c32.467459 29.537733 76.43381 45.150316 127.146818 45.150317 51.495838 0 105.626689-16.365736 152.438855-46.093805 61.867046-39.374776 100.282984-95.454002 105.391329-153.791665 1.211595-13.307074 0.564865-26.888394-1.919723-40.551578l39.080064-23.431666 342.052376 191.83512c7.740288 4.300956 16.896832 6.670933 25.780153 6.670933 8.890484 0 17.066701-1.988284 24.311709-5.912663l65.022922-32.511461 0.362251-0.186242c15.496949-8.138354 26.198685-23.605627 28.626991-41.378409l0.095167-0.826832c1.737574-18.21178-6.215562-36.124755-20.777209-46.8664zM390.040321 438.017008c-1.783623 0.915859-4.984524 2.437515-6.871501 3.333932-7.478322 3.553942-9.997702 4.751211-12.890589 7.578606l-10.755971 10.509354-1.780553 0.810459c-20.393469 9.289574-43.48335 13.999852-68.625983 13.999852-44.142359 0-90.653673-14.096043-130.964774-39.687908-50.688449-32.577976-82.07018-77.378321-86.099961-122.952286-3.034103-33.743522 9.267061-65.913199 33.748639-88.262206l0.12075-0.110517c24.945135-23.140023 58.407248-34.873252 99.455129-34.873252 43.823088 0 90.161463 14.100136 130.478704 39.70428l0.095167 0.060375c50.924833 31.946596 82.44778 76.716242 86.49291 122.898052 1.235131 13.571087-0.236384 27.702945-4.372587 42.003649l-5.551436 19.192108-13.920035 16.59905c-1.819438 1.849114-3.409656 3.617387-4.830005 5.198395-1.357927 1.511423-2.574638 2.865257-3.727904 3.998057z m8.274454 40.723494l-1.51961-0.909719-0.331551-2.100848 2.420119 2.476401c-0.192382 0.188288-0.381693 0.366344-0.568958 0.534166z m24.121373 225.096664c-3.994987 45.62206-35.55989 90.416266-86.581937 122.888842-40.318264 25.604144-86.656639 39.705304-130.478704 39.705304-40.308031 0-74.717725-11.902074-99.516527-34.418904-24.50716-22.850427-36.829813-55.220672-33.804921-88.856748 4.027733-45.553499 35.413558-90.356914 86.11838-122.935913 40.308031-25.586748 86.807065-39.674605 130.943285-39.674605 25.142633 0 48.231491 4.710278 68.625983 13.999852l15.84999 7.220449 0.336668-0.50449 38.903031 42.396599 5.238305 18.108427c4.137227 14.299681 5.607718 28.430516 4.366447 42.071187z m109.531626-103.573936c-11.865235 0.328481-18.996656 0.527003-23.615861 0.781805l-8.67252-4.863774-48.290842 28.953426-47.885614-52.185547 76.098165-45.551452-80.603782-48.247864 1.740644-0.827854c8.931416-4.244674 12.547781-6.037507 15.58393-8.852622 3.128247-2.789533 5.653767-5.599532 7.889691-8.088212 1.359974-1.512447 2.6432-2.940982 3.942798-4.233418l0.656963-0.65287 22.527063-26.862811 48.340984 28.985149L862.297155 255.246335c1.711991-0.951675 3.917216-1.518586 5.901406-1.518586 2.034333 0 3.676739 0.338714 4.879124 1.006933l0.388857 0.215917 65.535599 32.767288c3.614317 1.958608 6.16542 5.726421 6.898107 10.169617 0.220011 3.743254-1.528819 7.602142-4.42887 9.700943l-268.587177 210.818473-0.035816-0.047072-103.577007 80.527035c-8.187473 0.568958-25.943882 1.061169-37.303604 1.376347z m407.034367 166.813236L873.863584 799.645233l-0.787945 0.415462c-1.202385 0.667196-2.842745 1.00591-4.878101 1.00591-1.983167 0-4.189416-0.567935-5.828752-1.478678L576.606437 639.322827c6.378268-0.751107 10.951423-2.211365 14.760168-5.765307l103.147219-80.193437 246.323105 193.362916 0.635473 0.479931c2.899026 2.098801 4.647857 5.956665 4.428869 9.700942-0.733711 4.442172-3.284813 8.209986-6.89913 10.168594z" p-id="20541"></path><path d="M541.381168 474.249211c-29.306466 0-53.148477 23.842011-53.148478 53.147454 0 29.306466 23.842011 53.148477 53.148478 53.148477s53.148477-23.842011 53.148477-53.148477c-0.001023-29.305443-23.843034-53.147454-53.148477-53.147454z m0 65.363683c-6.507204 0-12.216229-5.708002-12.21623-12.216229s5.708002-12.216229 12.21623-12.216229 12.216229 5.708002 12.216229 12.216229-5.709025 12.216229-12.216229 12.216229z" p-id="20542"></path>
</svg>