<?xml version="1.0" standalone="no"?><!DOCTYPE svg PUBLIC "-//W3C//DTD SVG 1.1//EN" "http://www.w3.org/Graphics/SVG/1.1/DTD/svg11.dtd"><svg class="icon" width="200px" height="200.00px" viewBox="0 0 1024 1024" version="1.1" xmlns="http://www.w3.org/2000/svg">
<path d="M505.89035 198.929702l0 30.81175c0 10.44591 8.450463 18.932188 18.865673 18.932188 10.411117 0 18.86772-8.486278 18.86772-18.932188l0-30.81175c35.633568 2.075265 70.222341 10.021238 103.08582 23.791869 9.629311 4.058432 20.661575-0.527003 24.690332-10.171664 4.012384-9.645684-0.543376-20.747533-10.152221-24.775266-43.26027-18.129916-89.173972-27.322275-136.491651-27.322275-195.545628 0-354.611413 159.640883-354.611413 355.87622 0 83.374896 29.308513 164.452469 82.555228 228.28938 3.734044 4.480035 9.087982 6.7968 14.480806 6.7968 4.273327 0 8.563026-1.456165 12.095479-4.414543 7.997138-6.719028 9.04091-18.656919 2.355651-26.677593-43.526329-52.190663-69.067029-117.297496-73.119321-185.058786l30.671557 0c10.410094 0 18.865673-8.470929 18.865673-18.934235 0-10.454096-8.455579-18.936281-18.865673-18.936281l-30.699186 0C217.916637 337.091388 346.157369 208.396307 505.89035 198.929702L505.89035 198.929702zM505.89035 198.929702M794.234501 284.993846c-6.770194-7.946996-18.684548-8.876158-26.601868-2.075265-7.918343 6.80601-8.838296 18.765389-2.070148 26.707268 44.948725 52.693106 71.326489 118.758778 75.422783 187.766454l-30.658254 0c-10.42442 0-18.865673 8.482185-18.865673 18.936281 0 10.454096 8.441253 18.930141 18.865673 18.930141l30.68793 0c-9.432837 160.307056-137.679709 289.025673-297.392224 298.488185l0-30.80254c0-10.458189-8.456602-18.937305-18.86772-18.937305-10.413164 0-18.865673 8.479115-18.865673 18.937305l0 30.833239c-45.083801-2.700505-89.351004-15.046694-129.071657-36.136012-9.225105-4.90266-20.634969-1.343601-25.502837 7.877411-4.868891 9.239432-1.363044 20.702508 7.848759 25.602098 50.67003 26.89351 107.917872 41.105187 165.590386 41.105187 195.529255 0 354.61039-159.65214 354.61039-355.897709C879.366414 431.508781 849.124645 349.352643 794.234501 284.993846L794.234501 284.993846zM794.234501 284.993846M455.185528 527.029298c0 0-113.797789-175.077457-98.591459-201.02134 11.045567-18.784832 101.478206 56.386218 114.323768 65.413825 19.787672 13.900591 44.598754 40.873919 61.418838 58.377572M515.600503 513.741667m-60.386322 0a59.011 59.011 0 1 0 120.772644 0 59.011 59.011 0 1 0-120.772644 0ZM515.59948 579.630307c-36.329417 0-65.886593-29.559223-65.886593-65.88864s29.557176-65.88557 65.886593-65.88557c36.331463 0 65.88864 29.55513 65.88864 65.88557S551.930943 579.630307 515.59948 579.630307zM515.59948 458.856639c-30.263258 0-54.886051 24.620747-54.886051 54.885028 0 30.265304 24.622794 54.886051 54.886051 54.886051 30.265304 0 54.887075-24.62177 54.887075-54.886051C570.486554 483.477386 545.865807 458.856639 515.59948 458.856639zM582.810231 527.029298M668.45175 711.101617c-0.442068 0-0.886183-0.064468-1.322112-0.197498-11.206226-3.448542-21.8701-9.190313-33.55728-18.068518-25.638937-19.48068-49.039903-41.48688-76.2885-68.537979l-1.451048-1.437745c-13.174044-13.074783-26.796296-26.592658-39.582507-40.507576-1.683339-1.829671-1.561565-4.675486 0.267083-6.358825 1.829671-1.681292 4.677533-1.559519 6.360871 0.26913 12.646018 13.760398 26.193569 27.206642 39.293935 40.20877l1.451048 1.439792c26.996864 26.798343 50.151213 48.576345 75.392084 67.75822 8.549723 6.494924 16.200984 11.041474 24.038486 14.237259-3.14769-10.824533-12.750395-35.272341-28.354791-68.006883-20.562315-43.135426-40.588417-77.642334-54.94131-94.67322-1.602498-1.901303-1.359974-4.739954 0.538259-6.341429 1.901303-1.601474 4.739954-1.359974 6.341429 0.540306 21.7647 25.820062 47.733141 78.665641 57.886385 100.186793 8.574283 18.172895 16.216333 35.787064 21.518083 49.596582 9.089006 23.670096 7.501858 25.951045 6.102998 27.961842C671.289378 710.403722 669.897681 711.101617 668.45175 711.101617zM518.599813 946.887738c-58.470693 0-115.195625-11.452843-168.601976-34.043351-51.579749-21.813818-97.900727-53.045123-137.676639-92.822059-39.775912-39.775912-71.00517-86.098937-92.822059-137.676639C96.910679 628.939339 85.456812 572.21236 85.456812 513.743714c0-58.470693 11.452843-115.195625 34.042327-168.601976 21.816888-51.579749 53.046147-97.900727 92.822059-137.676639s86.09689-71.00517 137.676639-92.822059c53.40635-22.589484 110.132306-34.042327 168.601976-34.042327 58.468646 0 115.195625 11.452843 168.601976 34.042327 51.577702 21.816888 97.900727 53.046147 137.676639 92.822059 39.776935 39.775912 71.00824 86.09689 92.822059 137.676639 22.588461 53.40635 34.043351 110.132306 34.043351 168.601976 0 58.468646-11.453866 115.196649-34.043351 168.601976-21.813818 51.577702-53.045123 97.900727-92.822059 137.676639-39.775912 39.776935-86.098937 71.00824-137.676639 92.822059C633.795439 935.433872 577.06846 946.887738 518.599813 946.887738zM518.599813 99.93199c-228.175793 0-413.8107 185.635931-413.8107 413.811724 0 228.177839 185.634908 413.8107 413.8107 413.8107 228.176816 0 413.8107-185.632861 413.8107-413.8107C932.410514 285.567921 746.777653 99.93199 518.599813 99.93199zM518.599813 958.655759c-60.054771 0-118.322849-11.765975-173.186388-34.972513-52.980655-22.407336-100.5603-54.483892-141.413753-95.339392-40.850383-40.851407-72.92694-88.430028-95.338369-141.41273C85.454766 632.066563 73.688791 573.798485 73.688791 513.743714c0-60.053748 11.765975-118.321826 34.971489-173.186388 22.410406-52.983725 54.487985-100.561323 95.338369-141.413753 40.851407-40.851407 88.430028-72.927963 141.413753-95.338369 54.864562-23.205515 113.13264-34.972513 173.186388-34.972513 60.054771 0 118.322849 11.766998 173.186388 34.972513 52.982702 22.411429 100.561323 54.487985 141.41273 95.338369 40.8555 40.853453 72.932056 88.432075 95.339392 141.413753 23.206538 54.866608 34.972513 113.134687 34.972513 173.186388 0 60.052724-11.765975 118.320802-34.972513 173.186388-22.407336 52.981678-54.484915 100.561323-95.339392 141.413753-40.853453 40.854477-88.432075 72.932056-141.413753 95.339392C636.922662 946.888761 578.655607 958.655759 518.599813 958.655759zM518.599813 111.700011c-221.687008 0-402.042679 180.355671-402.042679 402.043702 0 221.687008 180.355671 402.042679 402.042679 402.042679 221.687008 0 402.042679-180.355671 402.042679-402.042679C920.642492 292.055682 740.286822 111.700011 518.599813 111.700011z" />
</svg>