<?xml version="1.0" standalone="no"?><!DOCTYPE svg PUBLIC "-//W3C//DTD SVG 1.1//EN" "http://www.w3.org/Graphics/SVG/1.1/DTD/svg11.dtd"><svg class="icon" width="200px" height="200.00px" viewBox="0 0 1024 1024" version="1.1" xmlns="http://www.w3.org/2000/svg">
<path d="M710.656 471.04c6.144-2.048 12.288-4.096 16.384-8.192l129.024-147.456c8.192-10.24 6.144-22.528-4.096-28.672l-169.984-98.304c-6.144-2.048-10.24-4.096-14.336-4.096h-4.096l-67.584 12.288V184.32c0-45.056-36.864-81.92-81.92-81.92s-81.92 36.864-81.92 81.92v40.96L184.32 266.24c-18.432 4.096-26.624 20.48-16.384 32.768l81.92 94.208c4.096 4.096 6.144 12.288 2.048 18.432l-45.056 116.736c-6.144 14.336 6.144 26.624 22.528 26.624h6.144l198.656-34.816v24.576l-45.056-2.048c-4.096 0-10.24 0-12.288 4.096L266.24 616.448c-6.144 4.096-8.192 12.288 0 16.384l104.448 77.824c4.096 2.048 8.192 4.096 12.288 4.096l51.2 2.048v122.88c0 45.056 36.864 81.92 81.92 81.92s81.92-36.864 81.92-81.92v-116.736l129.024 4.096c12.288 0 22.528-8.192 16.384-16.384l-43.008-65.536c-2.048-4.096-2.048-8.192 0-10.24l49.152-61.44c6.144-8.192-2.048-18.432-14.336-18.432l-135.168-4.096V491.52l110.592-20.48zM473.088 184.32c0-22.528 18.432-40.96 40.96-40.96s40.96 18.432 40.96 40.96v18.432l-81.92 14.336V184.32zM258.048 507.904l32.768-79.872c8.192-20.48 4.096-43.008-10.24-59.392l-57.344-65.536 440.32-75.776 141.312 81.92-106.496 124.928-440.32 73.728zM555.008 839.68c0 22.528-18.432 40.96-40.96 40.96s-40.96-18.432-40.96-40.96v-120.832l81.92 2.048V839.68z m-81.92-294.912V512l81.92-14.336v51.2l-81.92-4.096z" />
</svg>