<?xml version="1.0" standalone="no"?><!DOCTYPE svg PUBLIC "-//W3C//DTD SVG 1.1//EN" "http://www.w3.org/Graphics/SVG/1.1/DTD/svg11.dtd"><svg t="1500006256515" class="icon" style="" viewBox="0 0 1024 1024" version="1.1" xmlns="http://www.w3.org/2000/svg" p-id="14691" xmlns:xlink="http://www.w3.org/1999/xlink" width="128" height="128"><defs><style type="text/css"></style></defs>
<path d="M 1004.51 615.967 l -147.629 -147.629 c -6.431 -6.43 -15.377 -8.793 -23.667 -7.11 c -0.865 -0.07 -1.738 -0.117 -2.624 -0.117 h -270.256 v -50.156 h 418.317 c 0.313 0 0.615 -0.033 0.927 -0.042 c 8.187 1.54 16.967 -0.851 23.3 -7.186 c 10.187 -10.192 10.187 -26.713 0 -36.905 l -131.41 -131.41 l 131.41 -131.41 c 10.187 -10.192 10.187 -26.713 0 -36.905 c -6.339 -6.343 -15.132 -8.736 -23.324 -7.186 c -0.345 -0.012 -0.683 -0.047 -1.03 -0.047 h -418.191 v -25.077 c 0 -13.847 -11.226 -25.077 -25.077 -25.077 s -25.077 11.23 -25.077 25.077 v 25.077 h -322.22 c -0.381 0 -0.751 0.037 -1.129 0.05 c -8.199 -1.559 -17.005 0.831 -23.354 7.182 l -147.628 147.625 c -5.665 5.667 -8.171 13.29 -7.538 20.691 c -0.633 7.403 1.872 15.022 7.538 20.687 l 147.628 147.628 c 6.585 6.585 15.807 8.889 24.263 6.964 c 1.263 0.155 2.542 0.262 3.853 0.262 h 318.587 v 50.156 h -469.686 c -8.105 -1.431 -16.752 0.966 -23.01 7.229 c -10.196 10.192 -10.196 26.719 0 36.91 l 131.403 131.408 l -131.403 131.409 c -10.196 10.191 -10.196 26.723 0 36.91 c 6.257 6.26 14.905 8.658 23.009 7.229 h 469.686 v 175.546 c 0 13.853 11.226 25.077 25.077 25.077 s 25.077 -11.226 25.077 -25.077 l -0.001 -175.546 h 273.535 c 8.103 1.431 16.749 -0.967 23.01 -7.229 l 147.628 -147.628 c 5.664 -5.664 8.171 -13.285 7.538 -20.689 c 0.635 -7.403 -1.871 -15.023 -7.534 -20.688 Z M 68.974 235.412 l 125.388 -125.392 h 728.684 l -104.707 104.701 c -5.665 5.667 -8.171 13.29 -7.538 20.691 c -0.633 7.403 1.872 15.022 7.538 20.687 l 104.704 104.701 h -728.685 l -125.383 -125.388 Z M 825.993 762.045 h -728.679 l 104.698 -104.701 c 5.667 -5.664 8.174 -13.285 7.541 -20.689 c 0.634 -7.404 -1.874 -15.024 -7.541 -20.689 l -104.698 -104.701 h 728.679 l 125.389 125.39 l -125.389 125.39 Z" p-id="14692"></path>
</svg>