<?xml version="1.0" standalone="no"?><!DOCTYPE svg PUBLIC "-//W3C//DTD SVG 1.1//EN" "http://www.w3.org/Graphics/SVG/1.1/DTD/svg11.dtd">

<svg t="1500003412005" class="icon" style="" viewBox="0 0 1080 1024" version="1.1" xmlns="http://www.w3.org/2000/svg" p-id="1525" xmlns:xlink="http://www.w3.org/1999/xlink" width="210.9375" height="200"><defs>
      <style type="text/css"></style></defs>



      <path d="M788.350992 519.151874l-102.166173-56.231307-119.848315 106.125102v-4.845858l-6.442331 2.023811-67.430803-216.555842-3.999244 2.136692L324.253228 250.678425 1080.384504 0.088693 788.350992 519.151874z m-208.508976 19.867213l93.756472-83.02463-93.756472-51.595087v134.619717z m-74.566551-193.648882l61.061039 196.108094v-143.27937h2.241512l-4.33789-2.386646 335.71074-263.675968-406.20548 216.84611 11.530079-3.61222z m-16.335622-9.167622l472.539716-252.250709 7.32926 11.320441-380.113638 298.548409 194.455181 107.020095L1051.454488 23.947087l-695.352441 230.440315L488.939843 336.202583z m-61.2223 118.13896c-6.998677-43.644976-46.78148-54.505827-47.176567-54.602582l2.539843-9.844914c1.902866 0.491843 46.596031 12.699213 54.634835 62.826835l-9.998111 1.620661z m19.552756-35.049826l-9.401449-3.781544c1.677102-4.200819-9.143433-12.191244-17.649889-16.069543l4.192756-9.248252c2.983307 1.354583 28.978394 13.739339 22.858582 29.099339z m50.683969 171.515968l1.749669 10.014236c-1.459402 0.249953-120.606236 22.149039-184.602205 98.449134 9.119244 0.032252 17.480567 0.78211 24.938835 2.120567 30.292661 5.418331 48.152189 20.31874 46.612157 38.879748-2.160882 25.938646-26.591748 44.257764-48.740787 52.764221-24.197039 9.288567-47.329764 8.192-58.924346-2.805922-6.023055-5.708598-11.876787-16.722646-5.515087-36.743055a173.176945 173.176945 0 0 1 20.786394-43.193449C201.542551 720.291276 70.325417 804.098016 9.75622 1024L0 1021.290835c23.100472-83.879307 70.752756-198.591496 166.581417-268.675024 48.442457-35.428787 96.917165-50.216315 135.200252-52.893228 23.076283-30.228157 56.771528-56.23937 99.803717-76.743559 50.111496-23.87452 94.506331-31.840756 96.368882-32.171339zM283.115843 756.566677c-3.813795 12.038047-2.870425 20.88315 2.83011 26.277292 8.643528 8.200063 28.075339 8.482268 48.345701 0.70148 18.391685-7.055118 40.500409-22.842457 42.266204-44.120693 1.056252-12.683087-13.981228-23.681008-38.291149-28.035024a147.947843 147.947843 0 0 0-31.066709-2.023811 164.662425 164.662425 0 0 0-24.084157 47.200756z m483.876283-174.104189l3.749291-9.433701c0.32252 0.120945 32.36485 12.594394 63.762142 0l3.757354 9.433701c-11.989669 4.813606-23.906772 6.418142-34.461228 6.418142-20.471937 0-35.848063-6.031118-36.807559-6.418142z m105.971905 19.843024l3.338079 9.59496c-27.10778 9.490142-49.797039 12.957228-68.478992 12.957229-49.466457 0-70.865638-24.33411-72.067024-25.753197l7.700158-6.603591c0.370898 0.427339 37.64611 41.967874 129.507779 9.804599z"  p-id="1526"></path>
      </svg>