<?xml version="1.0" standalone="no"?><!DOCTYPE svg PUBLIC "-//W3C//DTD SVG 1.1//EN" "http://www.w3.org/Graphics/SVG/1.1/DTD/svg11.dtd"><svg t="1500370720799" class="icon" style="" viewBox="0 0 1024 1024" version="1.1" xmlns="http://www.w3.org/2000/svg" p-id="22653" xmlns:xlink="http://www.w3.org/1999/xlink" width="128" height="128"><defs><style type="text/css"></style></defs>
<path d="M1005.424 287.872 736.336 18.784c-24.816-24.784-64.928-24.784-89.696 0L18.768 646.624c-24.752 24.816-24.752 64.912 0 89.712L287.84 1005.408c24.8 24.784 64.944 24.784 89.728 0l627.84-627.84C1030.192 352.784 1030.192 312.656 1005.424 287.872zM982.992 355.136l-627.84 627.856c-12.384 12.384-32.464 12.384-44.864 0L41.2 713.904c-12.384-12.368-12.384-32.48-0.016-44.864l33.664-33.616 44.848 44.832c6.192 6.224 16.224 6.224 22.432 0 6.192-6.176 6.192-16.208-0.016-22.384l-44.848-44.88 44.848-44.848 89.68 89.712c6.224 6.192 16.24 6.192 22.416 0 6.208-6.224 6.208-16.256 0-22.432l-89.664-89.68 44.832-44.864 44.848 44.864c6.208 6.176 16.24 6.176 22.432 0 6.176-6.224 6.176-16.224 0-22.432l-44.864-44.848 44.864-44.848 44.832 44.848c6.224 6.208 16.224 6.208 22.448 0 6.176-6.192 6.176-16.224 0-22.432l-44.88-44.848 44.88-44.832 89.68 89.68c6.192 6.208 16.224 6.208 22.416 0s6.208-16.224 0-22.416l-89.68-89.68 44.816-44.88 44.88 44.864c6.208 6.192 16.24 6.192 22.4 0.016 6.224-6.224 6.224-16.256 0-22.432l-44.848-44.848 44.848-44.848 44.864 44.848c6.176 6.192 16.224 6.192 22.416 0 6.192-6.192 6.192-16.24 0-22.416l-44.848-44.864 44.848-44.816 89.68 89.664c6.208 6.192 16.24 6.192 22.416 0 6.208-6.208 6.208-16.24 0-22.416l-89.696-89.696 44.864-44.832 44.848 44.832c6.208 6.208 16.24 6.208 22.416 0 6.208-6.208 6.208-16.24 0-22.416l-44.848-44.832 33.632-33.664c12.384-12.352 32.48-12.352 44.864 0l269.072 269.072C995.376 322.672 995.376 342.768 982.992 355.136z" p-id="22654"></path><path d="M816.112 272.096c-35.344 0-64 28.656-64 64s28.656 64 64 64 64-28.656 64-64S851.456 272.096 816.112 272.096zM816.112 368.096c-17.664 0-32-14.336-32-32s14.336-32 32-32 32 14.336 32 32S833.776 368.096 816.112 368.096z" p-id="22655"></path>
</svg>