<?xml version="1.0" standalone="no"?><!DOCTYPE svg PUBLIC "-//W3C//DTD SVG 1.1//EN" "http://www.w3.org/Graphics/SVG/1.1/DTD/svg11.dtd">
<svg t="1500368198817" class="icon" style="" viewBox="0 0 1024 1024" version="1.1" xmlns="http://www.w3.org/2000/svg" p-id="4314" xmlns:xlink="http://www.w3.org/1999/xlink" width="128" height="128"><defs><style type="text/css"></style></defs>
<path d="M371.940592 768.274758m-13.204743 0a13.204743 13.204743 0 1 0 26.409486 0 13.204743 13.204743 0 1 0-26.409486 0Z" fill="" p-id="4315"></path><path d="M316.715827 654.841266m-13.19451 0a13.19451 13.19451 0 1 0 26.38902 0 13.19451 13.19451 0 1 0-26.38902 0Z" fill="" p-id="4316"></path><path d="M238.116701 737.672786m-13.204743 0a13.204743 13.204743 0 1 0 26.409486 0 13.204743 13.204743 0 1 0-26.409486 0Z" fill="" p-id="4317"></path><path d="M373.736495 843.87969m-8.404414 0a8.404414 8.404414 0 1 0 16.808827 0 8.404414 8.404414 0 1 0-16.808827 0Z" fill="" p-id="4318"></path><path d="M197.893604 599.049588m-8.404414 0a8.404414 8.404414 0 1 0 16.808828 0 8.404414 8.404414 0 1 0-16.808828 0Z" fill="" p-id="4319"></path><path d="M371.930359 597.990466m-13.204743 0a13.204743 13.204743 0 1 0 26.409486 0 13.204743 13.204743 0 1 0-26.409486 0Z" fill="" p-id="4320"></path><path d="M306.735521 714.727191m-13.19451 0a13.19451 13.19451 0 1 0 26.38902 0 13.19451 13.19451 0 1 0-26.38902 0Z" fill="" p-id="4321"></path><path d="M266.332323 573.83737m-8.403391 0a8.403391 8.403391 0 1 0 16.806781 0 8.403391 8.403391 0 1 0-16.806781 0Z" fill="" p-id="4322"></path><path d="M413.659763 684.185594m-8.404414 0a8.404414 8.404414 0 1 0 16.808827 0 8.404414 8.404414 0 1 0-16.808827 0Z" fill="" p-id="4323"></path><path d="M286.812773 282.933931v20.320814l29.703509-15.490809a21.73093 21.73093 0 0 0 11.717879-19.333324v-20.670785l-29.882587 15.939017a21.75549 21.75549 0 0 0-11.538801 19.235087zM248.367159 287.764959l29.712719 15.49081v-20.320815a21.75549 21.75549 0 0 0-11.548011-19.23304l-29.883611-15.939017v20.670785a21.732977 21.732977 0 0 0 11.718903 19.331277zM286.812773 331.091744v20.320814l29.703509-15.489786a21.75856 21.75856 0 0 0 11.717879-19.343557v-20.669762l-29.882587 15.939018a21.775956 21.775956 0 0 0-11.538801 19.243273zM248.367159 335.922772l29.712719 15.489786v-20.320814a21.771863 21.771863 0 0 0-11.548011-19.243273l-29.883611-15.939018v20.669762a21.74935 21.74935 0 0 0 11.718903 19.343557zM286.812773 379.249557v20.311605l29.703509-15.480577a21.757536 21.757536 0 0 0 11.717879-19.342533v-20.670786l-29.882587 15.940041a21.750373 21.750373 0 0 0-11.538801 19.24225zM278.079878 379.239324a21.772886 21.772886 0 0 0-11.548011-19.243273l-29.883611-15.940041v20.670785a21.744233 21.744233 0 0 0 11.71788 19.342534l29.712719 15.490809v-20.320814zM282.441209 267.51373l12.685927-19.931958a21.745257 21.745257 0 0 0-0.52905-24.213472l-12.156877-17.366529-12.146645 17.356296a21.727861 21.727861 0 0 0-0.538259 24.213471l12.684904 19.942192zM401.592936 282.933931v20.320814l29.703509-15.490809a21.73093 21.73093 0 0 0 11.717879-19.333324v-20.670785l-29.882587 15.939017a21.753443 21.753443 0 0 0-11.538801 19.235087zM363.147322 287.764959l29.712719 15.49081v-20.320815a21.75549 21.75549 0 0 0-11.548011-19.23304l-29.882587-15.939017v20.670785a21.729907 21.729907 0 0 0 11.717879 19.331277zM401.592936 331.091744v20.320814l29.703509-15.489786a21.75856 21.75856 0 0 0 11.717879-19.343557v-20.669762l-29.882587 15.939018a21.773909 21.773909 0 0 0-11.538801 19.243273zM363.147322 335.922772l29.712719 15.489786v-20.320814a21.771863 21.771863 0 0 0-11.548011-19.243273l-29.882587-15.939018v20.669762a21.74628 21.74628 0 0 0 11.717879 19.343557zM401.592936 379.249557v20.311605l29.703509-15.480577a21.757536 21.757536 0 0 0 11.717879-19.342533v-20.670786l-29.882587 15.940041a21.74935 21.74935 0 0 0-11.538801 19.24225zM392.860041 379.239324a21.772886 21.772886 0 0 0-11.548011-19.243273l-29.882587-15.940041v20.670785a21.744233 21.744233 0 0 0 11.717879 19.342534l29.712719 15.490809v-20.320814zM397.221372 267.51373l12.69616-19.942192a21.745257 21.745257 0 0 0-0.529049-24.213471l-12.156878-17.366529-12.156878 17.366529a21.729907 21.729907 0 0 0-0.539282 24.213471l12.685927 19.942192z" fill="" p-id="4324"></path><path d="M789.599947 661.538805m-13.204743 0a13.204743 13.204743 0 1 0 26.409486 0 13.204743 13.204743 0 1 0-26.409486 0Z" fill="" p-id="4325"></path><path d="M602.378915 788.076756m-19.812231 0a19.812231 19.812231 0 1 0 39.624462 0 19.812231 19.812231 0 1 0-39.624462 0Z" fill="" p-id="4326"></path><path d="M454.751646 654.841266m-19.801998 0a19.801998 19.801998 0 1 0 39.603997 0 19.801998 19.801998 0 1 0-39.603997 0Z" fill="" p-id="4327"></path><path d="M708.006628 687.859263m-13.204744 0a13.204743 13.204743 0 1 0 26.409487 0 13.204743 13.204743 0 1 0-26.409487 0Z" fill="" p-id="4328"></path><path d="M461.359135 814.486242m-13.204744 0a13.204743 13.204743 0 1 0 26.409487 0 13.204743 13.204743 0 1 0-26.409487 0Z" fill="" p-id="4329"></path><path d="M752.820276 583.25895m-14.57188 0a14.57188 14.57188 0 1 0 29.14376 0 14.57188 14.57188 0 1 0-29.14376 0Z" fill="" p-id="4330"></path><path d="M582.566684 604.448552m-19.801998 0a19.801998 19.801998 0 1 0 39.603996 0 19.801998 19.801998 0 1 0-39.603996 0Z" fill="" p-id="4331"></path><path d="M828.60531 599.049588m-13.204744 0a13.204743 13.204743 0 1 0 26.409487 0 13.204743 13.204743 0 1 0-26.409487 0Z" fill="" p-id="4332"></path><path d="M612.339778 696.851055m-13.19451 0a13.19451 13.19451 0 1 0 26.38902 0 13.19451 13.19451 0 1 0-26.38902 0Z" fill="" p-id="4333"></path><path d="M521.962397 724.469066m-13.204743 0a13.204743 13.204743 0 1 0 26.409487 0 13.204743 13.204743 0 1 0-26.409487 0Z" fill="" p-id="4334"></path><path d="M529.77841 858.262258m-8.40339 0a8.403391 8.403391 0 1 0 16.806781 0 8.403391 8.403391 0 1 0-16.806781 0Z" fill="" p-id="4335"></path><path d="M665.826969 635.039267m-8.404413 0a8.404414 8.404414 0 1 0 16.808827 0 8.404414 8.404414 0 1 0-16.808827 0Z" fill="" p-id="4336"></path><path d="M675.808298 578.318428m-8.404414 0a8.404414 8.404414 0 1 0 16.808828 0 8.404414 8.404414 0 1 0-16.808828 0Z" fill="" p-id="4337"></path><path d="M470.362182 578.029856m-13.204743 0a13.204743 13.204743 0 1 0 26.409487 0 13.204743 13.204743 0 1 0-26.409487 0Z" fill="" p-id="4338"></path><path d="M680.179862 816.901245m-8.404414 0a8.404414 8.404414 0 1 0 16.808828 0 8.404414 8.404414 0 1 0-16.808828 0Z" fill="" p-id="4339"></path><path d="M703.095781 774.013459m-8.404414 0a8.404414 8.404414 0 1 0 16.808828 0 8.404414 8.404414 0 1 0-16.808828 0Z" fill="" p-id="4340"></path><path d="M797.086455 728.511125m-8.404413 0a8.404414 8.404414 0 1 0 16.808827 0 8.404414 8.404414 0 1 0-16.808827 0Z" fill="" p-id="4341"></path><path d="M516.373099 282.933931v20.320814l29.703509-15.490809a21.73093 21.73093 0 0 0 11.717879-19.333324v-20.670785l-29.882587 15.939017a21.753443 21.753443 0 0 0-11.538801 19.235087zM477.927485 287.764959l29.713742 15.49081v-20.320815a21.75549 21.75549 0 0 0-11.54801-19.23304l-29.882588-15.939017v20.670785a21.727861 21.727861 0 0 0 11.716856 19.331277zM516.373099 331.091744v20.320814l29.703509-15.489786a21.75856 21.75856 0 0 0 11.717879-19.343557v-20.669762l-29.882587 15.939018a21.773909 21.773909 0 0 0-11.538801 19.243273zM477.927485 335.922772l29.713742 15.489786v-20.320814a21.771863 21.771863 0 0 0-11.54801-19.243273l-29.882588-15.939018v20.669762a21.744233 21.744233 0 0 0 11.716856 19.343557zM516.373099 379.249557v20.311605l29.703509-15.480577a21.757536 21.757536 0 0 0 11.717879-19.342533v-20.670786l-29.882587 15.940041a21.74935 21.74935 0 0 0-11.538801 19.24225zM507.640204 379.239324a21.772886 21.772886 0 0 0-11.548011-19.243273l-29.882587-15.940041v20.670785a21.744233 21.744233 0 0 0 11.717879 19.342534l29.713742 15.490809v-20.320814zM512.001535 267.51373l12.69616-19.931958c4.740978-7.465019 4.541433-16.96744-0.529049-24.213472l-12.167111-17.366529-12.146645 17.356296a21.729907 21.729907 0 0 0-0.539282 24.213471l12.685927 19.942192zM632.811018 282.933931v20.320814l29.702486-15.490809c7.236821-3.762697 11.717879-11.178597 11.717879-19.333324v-20.670785l-29.882587 15.939017a21.75242 21.75242 0 0 0-11.537778 19.235087zM624.087333 303.255769l-0.010233-0.005117v0.005117zM594.374614 287.764959l29.703509 15.48467v-20.315698a21.736047 21.736047 0 0 0-11.54801-19.23304l-29.882588-15.939018v20.670786a21.718651 21.718651 0 0 0 11.727089 19.3323zM632.811018 331.091744v20.320814l29.702486-15.489786c7.236821-3.77293 11.717879-11.18883 11.717879-19.343557v-20.669762l-29.882587 15.939018a21.772886 21.772886 0 0 0-11.537778 19.243273zM594.374614 335.922772l29.703509 15.48467v-20.315698a21.751397 21.751397 0 0 0-11.54801-19.243273l-29.882588-15.939018v20.669762a21.735024 21.735024 0 0 0 11.727089 19.343557zM624.087333 351.412558l-0.010233-0.004093v0.004093zM632.811018 379.249557v20.311605l29.702486-15.480577c7.236821-3.77293 11.717879-11.18883 11.717879-19.342533v-20.670786l-29.882587 15.940041a21.748327 21.748327 0 0 0-11.537778 19.24225zM624.087333 399.561162l-0.010233-0.005117v0.005117zM624.0771 379.239324a21.753443 21.753443 0 0 0-11.548011-19.243273l-29.882587-15.940041v20.670785a21.735024 21.735024 0 0 0 11.727089 19.342534l29.703509 15.485693v-20.315698zM628.439454 267.51373l12.706393-19.942192a21.745257 21.745257 0 0 0-0.529049-24.213471l-12.167111-17.366529-12.146644 17.366529a21.74935 21.74935 0 0 0-0.549516 24.213471l12.685927 19.942192zM747.591181 282.933931v20.320814l29.702486-15.490809c7.236821-3.762697 11.717879-11.178597 11.717879-19.333324v-20.670785l-29.882587 15.939017a21.75242 21.75242 0 0 0-11.537778 19.235087zM738.867496 303.255769l-0.010233-0.005117v0.005117zM709.154777 287.764959l29.703509 15.48467v-20.315698a21.736047 21.736047 0 0 0-11.54801-19.23304l-29.882588-15.939018v20.670786a21.718651 21.718651 0 0 0 11.727089 19.3323zM747.591181 331.091744v20.320814l29.702486-15.489786c7.236821-3.77293 11.717879-11.18883 11.717879-19.343557v-20.669762l-29.882587 15.939018a21.772886 21.772886 0 0 0-11.537778 19.243273zM738.867496 351.412558l-0.010233-0.004093v0.004093zM709.154777 335.922772l29.703509 15.48467v-20.315698a21.751397 21.751397 0 0 0-11.54801-19.243273l-29.882588-15.939018v20.669762a21.735024 21.735024 0 0 0 11.727089 19.343557zM747.591181 379.249557v20.311605l29.702486-15.480577c7.236821-3.77293 11.717879-11.18883 11.717879-19.342533v-20.670786l-29.882587 15.940041a21.748327 21.748327 0 0 0-11.537778 19.24225zM738.857263 379.239324a21.753443 21.753443 0 0 0-11.548011-19.243273l-29.882587-15.940041v20.670785a21.735024 21.735024 0 0 0 11.727089 19.342534l29.703509 15.485693v-20.315698zM738.867496 399.561162l-0.010233-0.005117v0.005117zM743.219617 267.51373l12.706393-19.942192a21.745257 21.745257 0 0 0-0.529049-24.213471l-12.167111-17.366529-12.146644 17.366529a21.74935 21.74935 0 0 0-0.549516 24.213471l12.685927 19.942192zM390.696772 405.671323h13.050224v82.927711h-13.050224zM275.916609 405.671323h13.050223v82.927711h-13.050223zM505.476935 405.671323h13.050224v82.927711h-13.050224zM621.91383 405.671323h13.050224v82.927711h-13.050224zM736.693993 405.66109h13.050224v82.936921h-13.050224z" fill="" p-id="4342"></path><path d="M512.001535 75.365478c-240.766552 0-436.643732 195.876156-436.643732 436.639639 0 240.758366 195.878203 436.629405 436.643732 436.629405 240.763482 0 436.638615-195.871039 436.638615-436.629405 0.001023-240.763482-195.875133-436.639638-436.638615-436.639639z m0 850.246701c-217.97957 0-399.269519-170.352853-412.722926-387.823839l-0.884136-14.266936 827.214124 0.019443-0.883113 14.266935c-13.459546 217.460754-194.749496 387.804397-412.723949 387.804397z m0-827.214125c217.983663 0 399.273612 170.356946 412.723949 387.834073l0.883113 14.266935h-827.214124l0.884136-14.266935c13.45443-217.477127 194.744379-387.834072 412.722926-387.834073z" fill="" p-id="4343"></path>
</svg>