<?xml version="1.0" standalone="no"?><!DOCTYPE svg PUBLIC "-//W3C//DTD SVG 1.1//EN" "http://www.w3.org/Graphics/SVG/1.1/DTD/svg11.dtd"><svg t="1500866921931" class="icon" style="" viewBox="0 0 1024 1024" version="1.1" xmlns="http://www.w3.org/2000/svg" p-id="6257" xmlns:xlink="http://www.w3.org/1999/xlink" width="200" height="200"><defs><style type="text/css"></style></defs>
<path d="M316.181943 319.400229c-19.909486 0-40.023771 13.194971-40.023772 33.192228 0 19.850971 20.041143 33.162971 40.023772 33.162972s33.1776-13.385143 33.1776-33.236115c0-19.982629-13.253486-33.119086-33.1776-33.119085z m185.724343 66.296685c20.055771 0 33.250743-13.312 33.250743-33.1776 0-19.982629-13.194971-33.1776-33.250743-33.1776-19.850971 0-39.760457 13.121829-39.760457 33.1776 0 19.850971 19.968 33.1776 39.760457 33.1776zM588.1856 512c-13.194971 0-26.5216 13.194971-26.5216 26.463086 0 13.370514 13.326629 26.506971 26.5216 26.506971 20.099657 0 33.236114-13.136457 33.236114-26.506971 0-13.268114-13.063314-26.463086-33.236114-26.463086z m146.080914 0c-13.136457 0-26.448457 13.253486-26.448457 26.5216 0 13.385143 13.312 26.506971 26.448457 26.506971 19.982629 0 33.236114-13.121829 33.236115-26.506971-0.058514-13.312-13.312-26.5216-33.236115-26.5216z m92.803657-512h-630.198857C88.1664 0 0 88.210286 0 196.871314v630.257372C0 935.818971 88.122514 1024 196.856686 1024h630.213485c96.841143 0 177.415314-70.026971 193.857829-162.113829L1024 701.0304V196.871314C1024 88.181029 935.804343 0 827.070171 0zM402.446629 658.0224c-33.162971 0-59.743086-6.656-92.920686-13.253486l-92.803657 46.518857 26.580114-79.813485C176.830171 564.955429 137.069714 505.124571 137.069714 432.259657c0-126.303086 119.515429-225.718857 265.464686-225.718857 130.516114 0 244.779886 79.491657 267.819886 186.397257a228.352 228.352 0 0 0-25.6-1.536c-126.112914 0-225.572571 94.076343-225.631086 210.007772 0 19.412114 2.998857 37.975771 8.192 55.720228-8.265143 0.512-16.530286 0.892343-24.839314 0.892343z m391.3728 93.066971l20.041142 66.369829-72.8064-39.979886c-26.5216 6.656-53.218743 13.253486-79.608685 13.253486-126.288457 0-225.6896-86.206171-225.6896-192.512 0-106.130286 99.401143-192.599771 225.6896-192.599771 119.252114 0 225.499429 86.454857 225.499428 192.585142-0.058514 59.830857-39.775086 112.859429-93.125485 152.8832z" p-id="6258"></path>
</svg>