<?xml version="1.0" standalone="no"?><!DOCTYPE svg PUBLIC "-//W3C//DTD SVG 1.1//EN" "http://www.w3.org/Graphics/SVG/1.1/DTD/svg11.dtd"><svg t="1500370885904" class="icon" style="" viewBox="0 0 1024 1024" version="1.1" xmlns="http://www.w3.org/2000/svg" p-id="24601" xmlns:xlink="http://www.w3.org/1999/xlink" width="128" height="128"><defs><style type="text/css"></style></defs>
<path d="M926.84776 848.84234c-31.911366-38.293639-63.822732-82.969552-89.351825-114.880918-31.911366-38.293639-57.440459-76.587279-89.351825-108.498645-12.764546-12.764546-25.529093-31.911366-38.29364-51.058186v-6.382273c6.382273-12.764546 6.382273-19.14682 12.764547-31.911366v-12.764547c-19.14682-25.529093-38.293639-51.058186-57.440459-70.205005-19.14682-25.529093-38.293639-57.440459-63.822733-82.969552-6.382273-19.14682-25.529093-38.293639-38.293639-63.822733-6.382273-6.382273-6.382273-6.382273 0-6.382273s6.382273-6.382273 6.382273-12.764546c0 0 6.382273-6.382273 6.382273-19.14682v-6.382273c-6.382273-6.382273-12.764546-19.14682-19.146819-25.529093-6.382273-6.382273-6.382273-6.382273-12.764547 0s-12.764546 6.382273-19.14682 12.764546l-6.382273 6.382273v6.382274H512c-6.382273-12.764546-12.764546-19.14682-19.14682-31.911367 0-6.382273-6.382273-6.382273-12.764546-6.382273h-6.382273c-6.382273-6.382273-12.764546-19.14682-19.14682-25.529093V191.468197l12.764546-12.764546h12.764547c19.14682-12.764546 31.911366-25.529093 51.058186-38.29364l6.382273-6.382273c-6.382273-6.382273 0-6.382273 0-19.14682 0-6.382273 0-6.382273-6.382273-6.382273h-63.822733v-6.382273l19.14682-57.440459V38.293639c-19.14682 12.764546-38.293639 25.529093-57.440459 44.675913l-6.382273 6.382273c0 6.382273 0 6.382273-6.382274 12.764547s-19.14682 12.764546-25.529092 19.146819H384.354535c-6.382273-12.764546-19.14682-25.529093-25.529093-31.911366-6.382273-6.382273-6.382273-6.382273-12.764546 0-31.911366 25.529093-63.822732 51.058186-102.116372 76.587279-19.14682 12.764546-38.293639 25.529093-51.058186 44.675913-38.293639 51.058186-76.587279 95.734099-114.880918 140.410011-12.764546 19.14682-25.529093 31.911366-31.911366 57.440459v12.764547c0 12.764546 6.382273 25.529093 6.382273 44.675912 0 6.382273 0 6.382273 6.382273 0s12.764546-6.382273 19.14682-12.764546c19.14682-12.764546 38.293639-31.911366 57.440459-44.675913 25.529093-19.14682 44.675913-38.293639 70.205006-57.440459 6.382273-6.382273 12.764546-19.14682 12.764546-31.911366v-6.382273s0-6.382273 6.382273-6.382274c12.764546-12.764546 25.529093-19.14682 44.675913-31.911366 12.764546-6.382273 12.764546-6.382273 19.14682 0 12.764546 25.529093 25.529093 31.911366 31.911366 51.058186v6.382273c-6.382273 0-6.382273 6.382273-6.382273 12.764547s0 6.382273-6.382274 12.764546c0 6.382273-6.382273 12.764546-12.764546 12.764547-6.382273 6.382273-6.382273 6.382273-19.14682 0h-6.382273c-51.058186 38.293639-102.116372 76.587279-146.792284 114.880918-6.382273 0-6.382273 6.382273-6.382274 12.764546s-6.382273 12.764546-6.382273 19.14682c0 6.382273 0 6.382273 6.382273 12.764547 12.764546 0 19.14682 6.382273 31.911367 6.382273 6.382273 0 12.764546 6.382273 19.146819 0 6.382273 0 19.14682-6.382273 25.529093-6.382273 19.14682-6.382273 31.911366-12.764546 51.058186-19.14682 19.14682-6.382273 31.911366-12.764546 51.058186-25.529093 19.14682-6.382273 38.293639-19.14682 57.440459-25.529093 6.382273-6.382273 19.14682-6.382273 25.529093-12.764546H384.354535c12.764546 19.14682 25.529093 31.911366 38.29364 51.058185 6.382273 19.14682 25.529093 38.293639 38.293639 57.44046 6.382273 6.382273 6.382273 6.382273 0 12.764546h-6.382273c-6.382273 6.382273-6.382273 6.382273 0 12.764546 6.382273 12.764546 19.14682 19.14682 25.529093 31.911367 6.382273 6.382273 6.382273 6.382273 6.382273 0 6.382273-6.382273 12.764546-12.764546 25.529093-19.14682 0 6.382273 6.382273 6.382273 6.382273 12.764546 12.764546 19.14682 25.529093 38.293639 44.675913 57.44046 0 6.382273 6.382273 6.382273 6.382273 0l19.14682-19.14682c6.382273-6.382273 6.382273 0 12.764546 0 6.382273 12.764546 19.14682 25.529093 25.529093 38.293639 76.587279 89.351825 140.410011 185.085924 216.99729 274.437749 19.14682 19.14682 31.911366 44.675913 51.058186 63.822733 0 0 6.382273 6.382273 6.382273 0 6.382273-6.382273 12.764546-12.764546 19.14682-12.764547 12.764546-12.764546 31.911366-25.529093 44.675913-38.293639 6.382273-6.382273 6.382273-12.764546 12.764546-12.764547v-6.382273c0-6.382273 6.382273-12.764546 6.382273-19.14682v-6.382273c-12.764546-19.14682-38.293639-44.675913-57.440459-76.587279zM422.648175 414.84776c-6.382273 0-6.382273 0 0 0-6.382273 0-6.382273 0 0 0-6.382273 0 0 0 0 0z" fill="" p-id="24602"></path>
</svg>